Coordinates
version=1
nRows=26
nColumns=24
inDegrees=yes

Units are S.I. units (second, meters, Newtons, ...)
Angles are in degrees.

endheader
time	pelvis_tilt	pelvis_list	pelvis_rotation	pelvis_tx	pelvis_ty	pelvis_tz	hip_flexion_r	hip_adduction_r	hip_rotation_r	knee_angle_r	ankle_angle_r	subtalar_angle_r	mtp_angle_r	hip_flexion_l	hip_adduction_l	hip_rotation_l	knee_angle_l	ankle_angle_l	subtalar_angle_l	mtp_angle_l	lumbar_extension	lumbar_bending	lumbar_rotation
      3.18500000	     -0.25213795	      4.30037080	      4.15702530	     -1.56006592	      0.91517951	      0.18458262	     30.00268798	     -3.14731458	     -7.76923546	    -14.77440999	     10.90024729	     -4.66583000	      0.00000000	    -13.68531843	      8.06597906	      8.16316320	    -18.98975622	     25.45895699	     -6.00857570	      0.00000000	    -12.65760297	     -4.71460129	    -18.47975609
      3.19000000	     -0.27515262	      4.12061186	      4.32549053	     -1.55226670	      0.91444093	      0.18477065	     30.05806919	     -2.99478736	     -7.63284556	    -15.62389658	     10.13320997	     -5.53928516	      0.00000000	    -13.67449710	      7.71968200	      7.72826186	    -19.86827743	     25.32152359	     -5.25364110	      0.00000000	    -12.53970930	     -4.44331791	    -18.67608805
      3.19500000	     -0.33104038	      3.88812738	      4.36988421	     -1.54442548	      0.91372234	      0.18521379	     30.15218092	     -2.71111661	     -7.33128172	    -16.44583247	      9.19332569	     -6.47786559	      0.00000000	    -13.57327913	      7.32259538	      7.04783444	    -20.81186483	     25.13656499	     -4.40980123	      0.00000000	    -12.36697540	     -4.14981359	    -18.68033295
      3.20000000	     -0.40434129	      3.62917404	      4.42381228	     -1.53664353	      0.91309609	      0.18565642	     30.26689006	     -2.40675934	     -7.05638330	    -17.26285870	      8.20552449	     -7.34597792	      0.00000000	    -13.39460812	      6.89364161	      6.40237371	    -21.84288290	     24.85534505	     -3.59767030	      0.00000000	    -12.18570935	     -3.82158239	    -18.70037669
      3.20500000	     -0.48310279	      3.36279676	      4.40390284	     -1.52891612	      0.91253350	      0.18624277	     30.40860206	     -2.04438815	     -6.65000928	    -18.09453053	      7.18248555	     -8.22348550	      0.00000000	    -13.14594423	      6.45732723	      5.64116373	    -22.96320361	     24.48013387	     -2.76204693	      0.00000000	    -12.00684274	     -3.50200648	    -18.62233233
      3.21000000	     -0.60897498	      2.97841422	      4.47778791	     -1.52110478	      0.91210150	      0.18666370	     30.57714759	     -1.63376373	     -6.50882650	    -18.90411910	      6.17224023	     -8.92618120	      0.00000000	    -12.79611591	      5.88777496	      5.05425432	    -24.16362313	     24.00158006	     -2.00743271	      0.00000000	    -11.74853147	     -3.02329943	    -18.66216541
      3.21500000	     -0.73351789	      2.61662626	      4.47667955	     -1.51339678	      0.91170649	      0.18727375	     30.77367434	     -1.17839732	     -6.14936641	    -19.75132175	      5.18121434	     -9.71098413	      0.00000000	    -12.36340415	      5.32681087	      4.29571848	    -25.48488561	     23.44172259	     -1.16472781	      0.00000000	    -11.51532496	     -2.59248053	    -18.61598863
      3.22000000	     -0.86560290	      2.21952204	      4.47175113	     -1.50567971	      0.91135918	      0.18786638	     30.98375003	     -0.67726351	     -5.75892971	    -20.61815193	      4.26511457	    -10.49654495	      0.00000000	    -11.86508309	      4.73216971	      3.59524102	    -26.89686175	     22.77005455	     -0.42265213	      0.00000000	    -11.26988023	     -2.11462914	    -18.55520279
      3.22500000	     -0.99638976	      1.80951750	      4.45496295	     -1.49793343	      0.91112628	      0.18848452	     31.18364704	     -0.15387917	     -5.38911588	    -21.47855532	      3.41424814	    -11.21559303	      0.00000000	    -11.31816833	      4.11683020	      2.92767443	    -28.37844988	     21.93374545	      0.29143900	      0.00000000	    -11.02048923	     -1.62720754	    -18.51388324
      3.23000000	     -1.12368091	      1.38613066	      4.43625324	     -1.49019574	      0.91091662	      0.18911276	     31.37564747	      0.39897280	     -4.97182009	    -22.34451920	      2.67606749	    -11.95552754	      0.00000000	    -10.71055732	      3.48003039	      2.28890011	    -29.95751917	     20.99766177	      0.95386518	      0.00000000	    -10.77835005	     -1.12283606	    -18.46585785
      3.23500000	     -1.23948398	      0.96256414	      4.40425305	     -1.48249104	      0.91073122	      0.18976328	     31.55083522	      0.97150087	     -4.52084356	    -23.21065324	      2.05479531	    -12.70000278	      0.00000000	    -10.05701362	      2.84259139	      1.69719418	    -31.62018681	     19.95370412	      1.53772085	      0.00000000	    -10.56150501	     -0.61942305	    -18.42051924
      3.24000000	     -1.33618722	      0.52176046	      4.37439350	     -1.47468185	      0.91065467	      0.19038791	     31.65700235	      1.55375221	     -4.17505529	    -24.00648353	      1.60070443	    -13.34166875	      0.00000000	     -9.38302150	      2.18075245	      1.15422231	    -33.33239029	     18.73141382	      2.04934196	      0.00000000	    -10.34626785	     -0.09153107	    -18.39283366
      3.24500000	     -1.42780695	      0.08068397	      4.33797961	     -1.46699561	      0.91054695	      0.19108702	     31.75047383	      2.16157225	     -3.76531970	    -24.78984601	      1.24662050	    -14.02866895	      0.00000000	     -8.64441037	      1.51236029	      0.66020181	    -35.13756283	     17.46852808	      2.50532030	      0.00000000	    -10.16527488	      0.42600637	    -18.35777157
      3.25000000	     -1.50299592	     -0.34237663	      4.28711731	     -1.45929268	      0.91050885	      0.19181849	     31.78026178	      2.76116369	     -3.40295960	    -25.50078773	      1.05735056	    -14.65708905	      0.00000000	     -7.88402636	      0.85991440	      0.20518937	    -36.97716364	     16.06430301	      2.88315578	      0.00000000	    -10.00256761	      0.91730112	    -18.34107682
      3.25500000	     -1.54906400	     -0.81238805	      4.22891308	     -1.45158033	      0.91051747	      0.19247650	     31.74372047	      3.39185429	     -3.15634303	    -26.15546289	      1.05856883	    -15.11424209	      0.00000000	     -7.11501346	      0.17662970	     -0.17041049	    -38.85110140	     14.59248711	      3.09606575	      0.00000000	     -9.87366645	      1.48076180	    -18.28073106
      3.26000000	     -1.61121495	     -1.25273098	      4.16067429	     -1.44394051	      0.91052022	      0.19329935	     31.68481275	      4.02244655	     -2.87775315	    -26.73945073	      1.14094323	    -15.63249948	      0.00000000	     -6.27738638	     -0.49623237	     -0.53891259	    -40.76660213	     13.07293485	      3.28827722	      0.00000000	     -9.73874720	      1.97506505	    -18.25993211
      3.26500000	     -1.64299994	     -1.70263743	      4.06110796	     -1.43635451	      0.91059641	      0.19403690	     31.55840367	      4.65599737	     -2.67538488	    -27.26069227	      1.38004904	    -15.97808107	      0.00000000	     -5.44609723	     -1.14129229	     -0.82576750	    -42.67919596	     11.49898583	      3.28196222	      0.00000000	     -9.65623780	      2.50631881	    -18.17610801
      3.27000000	     -1.70965228	     -2.14517317	      3.95116660	     -1.42881146	      0.91063388	      0.19491145	     31.42839214	      5.30108548	     -2.46739467	    -27.70842851	      1.69067743	    -16.35688946	      0.00000000	     -4.53494647	     -1.79191557	     -1.11229006	    -44.61238874	      9.93273122	      3.20552029	      0.00000000	     -9.53467740	      2.99809089	    -18.11728032
      3.27500000	     -1.70550209	     -2.57119935	      3.80901099	     -1.42129374	      0.91083114	      0.19567575	     31.18181162	      5.92275768	     -2.31771980	    -28.09287670	      2.14718927	    -16.55132207	      0.00000000	     -3.69249998	     -2.38488760	     -1.34458841	    -46.49820036	      8.31440072	      2.88172423	      0.00000000	     -9.51113488	      3.49761309	    -17.99048717
      3.28000000	     -1.83233659	     -3.01076190	      3.65398599	     -1.41394538	      0.91083211	      0.19661887	     31.06147102	      6.57600341	     -2.12341044	    -28.43057981	      2.53424165	    -16.84534268	      0.00000000	     -2.64308288	     -2.99918724	     -1.56199744	    -48.43977687	      6.80363315	      2.52112118	      0.00000000	     -9.35409752	      3.97230233	    -17.88310054
      3.28500000	     -1.91274168	     -3.42155338	      3.47176169	     -1.40662345	      0.91095963	      0.19750140	     30.85467377	      7.19764392	     -1.96012614	    -28.71459002	      3.02589265	    -17.01083489	      0.00000000	     -1.63913349	     -3.55306190	     -1.75231645	    -50.32192843	      5.28632444	      1.93113280	      0.00000000	     -9.26250650	      4.42630336	    -17.71266122
      3.29000000	     -1.90788429	     -3.83111674	      3.27432064	     -1.39931295	      0.91126789	      0.19838086	     30.51453933	      7.81991131	     -1.83395439	    -28.92813508	      3.57917116	    -17.09718818	      0.00000000	     -0.72160355	     -4.10229286	     -1.94772570	    -52.14394148	      3.82424946	      1.18898734	      0.00000000	     -9.27957722	      4.88348771	    -17.50650874
      3.29500000	     -2.03669641	     -4.20767596	      3.05549648	     -1.39218028	      0.91141484	      0.19931177	     30.32229478	      8.41177643	     -1.67149952	    -29.14130690	      4.04853776	    -17.22617689	      0.00000000	      0.38114126	     -4.59104242	     -2.10539014	    -53.96334475	      2.46119636	      0.29558148	      0.00000000	     -9.16441403	      5.28461308	    -17.27066121
      3.30000000	     -2.17255359	     -4.56056722	      2.83349650	     -1.38501194	      0.91159823	      0.20025522	     30.08535625	      8.98725000	     -1.45522221	    -29.28514043	      4.60375803	    -17.30529621	      0.00000000	      1.49007571	     -5.04809727	     -2.25254889	    -55.71434474	      1.23693487	     -0.73037131	      0.00000000	     -9.02910641	      5.65111925	    -17.03681008
      3.30500000	     -2.21667257	     -4.92368310	      2.60573191	     -1.37789117	      0.91196067	      0.20118654	     29.73771507	      9.56707208	     -1.30228657	    -29.40063722	      5.12833202	    -17.35022591	      0.00000000	      2.50339871	     -5.51760774	     -2.40451662	    -57.39628369	      0.17853538	     -1.86514584	      0.00000000	     -9.01771576	      6.03775153	    -16.76662833
      3.31000000	     -2.36977813	     -5.21612192	      2.37007473	     -1.37083915	      0.91223317	      0.20216044	     29.47559032	     10.08282789	     -1.05862147	    -29.47780826	      5.65254491	    -17.39255044	      0.00000000	      3.64502307	     -5.89976731	     -2.54357326	    -59.01829894	     -0.70271298	     -3.12902080	      0.00000000	     -8.87918564	      6.32053479	    -16.50966302
